<svg data-v-fde0c5aa="" xmlns="http://www.w3.org/2000/svg" viewBox="0 0 300 300" class="iconLeftSlogan"><!----><defs data-v-fde0c5aa=""><!----></defs><!----><defs data-v-fde0c5aa=""><!----></defs><g data-v-fde0c5aa="" id="68b986d3-f0e0-4c43-a6be-5ceaaaeea717" fill="#08374E" transform="matrix(1.3585455000960815,0,0,1.3585455000960815,83.9460994479358,128.82596306736824)"><path d="M0.77 5.15L0.77 3.09L9.02 3.09L9.02 6.62L6.79 6.62L6.79 5.15L4.13 5.15L4.13 7.20L6.19 7.20L6.19 9.18L4.13 9.18L4.13 11.58L6.79 11.58L6.79 9.74L9.02 9.74L9.02 13.45L0.77 13.45L0.77 11.58L1.86 11.58L1.86 5.15L0.77 5.15ZM15.54 13.45L15.54 11.58L16.57 11.58L16.11 10.09L12.92 10.09L12.46 11.58L13.55 11.58L13.55 13.45L9.62 13.45L9.62 11.58L10.39 11.58L13.21 3.09L15.96 3.09L18.72 11.58L19.47 11.58L19.47 13.45L15.54 13.45ZM14.50 4.97L13.46 8.34L15.55 8.34L14.50 4.97ZM25.38 6.61L25.38 6.01Q25.35 5.77 25.21 5.56Q25.08 5.35 24.87 5.19Q24.66 5.04 24.40 4.95Q24.14 4.86 23.85 4.86L23.85 4.86Q23.59 4.86 23.37 4.92Q23.14 4.97 22.97 5.08Q22.80 5.20 22.71 5.37Q22.61 5.55 22.61 5.80L22.61 5.80Q22.61 6.10 22.74 6.29Q22.87 6.47 23.08 6.58Q23.29 6.70 23.54 6.77Q23.80 6.84 24.04 6.92L24.04 6.92L25.92 7.55Q26.30 7.68 26.65 7.92Q26.99 8.16 27.24 8.50Q27.49 8.85 27.63 9.29Q27.77 9.73 27.77 10.29L27.77 10.29Q27.77 11.04 27.50 11.66Q27.22 12.28 26.72 12.73Q26.22 13.17 25.53 13.42Q24.83 13.67 23.98 13.67L23.98 13.67Q23.39 13.67 22.86 13.53Q22.33 13.40 21.89 13.15Q21.45 12.89 21.12 12.54Q20.79 12.19 20.61 11.74L20.61 11.74L19.91 11.74L19.91 9.69L22.38 9.69L22.38 10.11Q22.38 10.42 22.48 10.68Q22.58 10.94 22.78 11.13Q22.98 11.32 23.28 11.43Q23.58 11.53 23.98 11.53L23.98 11.53Q24.60 11.53 24.92 11.25Q25.24 10.96 25.24 10.46L25.24 10.46Q25.24 10.20 25.13 10.02Q25.01 9.85 24.83 9.73Q24.66 9.61 24.44 9.53Q24.22 9.45 24.01 9.38L24.01 9.38L22.44 8.87Q22.00 8.74 21.58 8.49Q21.17 8.24 20.85 7.88Q20.54 7.51 20.35 7.01Q20.16 6.51 20.16 5.88L20.16 5.88Q20.16 5.14 20.43 4.56Q20.71 3.99 21.20 3.59Q21.69 3.19 22.37 2.99Q23.04 2.78 23.85 2.78L23.85 2.78Q24.49 2.78 25.03 2.93Q25.57 3.08 25.99 3.32Q26.42 3.57 26.72 3.89Q27.02 4.20 27.17 4.55L27.17 4.55L27.86 4.55L27.86 6.61L25.38 6.61ZM30.69 13.45L30.69 11.58L31.76 11.58L31.76 4.90L30.50 4.90L30.50 6.24L28.27 6.24L28.27 3.09L37.70 3.09L37.70 6.24L35.46 6.24L35.46 4.90L34.03 4.90L34.03 11.58L35.12 11.58L35.12 13.45L30.69 13.45ZM52.25 4.97L52.25 3.09L56.69 3.09L56.69 4.97L55.75 4.97L53.37 13.45L50.42 13.45L48.85 6.99L47.25 13.45L44.32 13.45L41.90 4.97L40.85 4.97L40.85 3.09L45.29 3.09L45.29 4.97L44.21 4.97L45.74 10.55L47.58 3.11L50.12 3.11L51.93 10.55L53.46 4.97L52.25 4.97ZM57.60 5.15L57.60 3.09L65.84 3.09L65.84 6.62L63.62 6.62L63.62 5.15L60.96 5.15L60.96 7.20L63.01 7.20L63.01 9.18L60.96 9.18L60.96 11.58L63.62 11.58L63.62 9.74L65.84 9.74L65.84 13.45L57.60 13.45L57.60 11.58L58.69 11.58L58.69 5.15L57.60 5.15ZM72.02 6.61L72.02 6.01Q71.98 5.77 71.85 5.56Q71.72 5.35 71.51 5.19Q71.30 5.04 71.04 4.95Q70.77 4.86 70.49 4.86L70.49 4.86Q70.23 4.86 70 4.92Q69.77 4.97 69.61 5.08Q69.44 5.20 69.34 5.37Q69.24 5.55 69.24 5.80L69.24 5.80Q69.24 6.10 69.37 6.29Q69.51 6.47 69.72 6.58Q69.92 6.70 70.18 6.77Q70.43 6.84 70.67 6.92L70.67 6.92L72.55 7.55Q72.94 7.68 73.28 7.92Q73.62 8.16 73.87 8.50Q74.12 8.85 74.27 9.29Q74.41 9.73 74.41 10.29L74.41 10.29Q74.41 11.04 74.13 11.66Q73.86 12.28 73.36 12.73Q72.86 13.17 72.16 13.42Q71.46 13.67 70.62 13.67L70.62 13.67Q70.02 13.67 69.49 13.53Q68.96 13.40 68.52 13.15Q68.09 12.89 67.76 12.54Q67.43 12.19 67.25 11.74L67.25 11.74L66.54 11.74L66.54 9.69L69.02 9.69L69.02 10.11Q69.02 10.42 69.11 10.68Q69.21 10.94 69.41 11.13Q69.61 11.32 69.91 11.43Q70.21 11.53 70.62 11.53L70.62 11.53Q71.23 11.53 71.55 11.25Q71.87 10.96 71.87 10.46L71.87 10.46Q71.87 10.20 71.76 10.02Q71.65 9.85 71.47 9.73Q71.29 9.61 71.07 9.53Q70.85 9.45 70.64 9.38L70.64 9.38L69.08 8.87Q68.63 8.74 68.22 8.49Q67.81 8.24 67.49 7.88Q67.17 7.51 66.98 7.01Q66.79 6.51 66.79 5.88L66.79 5.88Q66.79 5.14 67.07 4.56Q67.34 3.99 67.83 3.59Q68.33 3.19 69.00 2.99Q69.68 2.78 70.49 2.78L70.49 2.78Q71.12 2.78 71.66 2.93Q72.20 3.08 72.63 3.32Q73.06 3.57 73.35 3.89Q73.65 4.20 73.81 4.55L73.81 4.55L74.49 4.55L74.49 6.61L72.02 6.61ZM77.32 13.45L77.32 11.58L78.39 11.58L78.39 4.90L77.14 4.90L77.14 6.24L74.91 6.24L74.91 3.09L84.33 3.09L84.33 6.24L82.09 6.24L82.09 4.90L80.66 4.90L80.66 11.58L81.76 11.58L81.76 13.45L77.32 13.45ZM88.12 13.45L88.12 11.58L89.18 11.58L89.18 4.97L88.12 4.97L88.12 3.08L93.17 3.09Q93.88 3.09 94.46 3.34Q95.05 3.59 95.47 4.02Q95.89 4.44 96.13 5.01Q96.37 5.58 96.37 6.23L96.37 6.23Q96.37 6.98 96.10 7.47Q95.84 7.96 95.35 8.26L95.35 8.26Q95.87 8.59 96.16 9.07Q96.46 9.56 96.46 10.25L96.46 10.25Q96.46 10.95 96.22 11.54Q95.98 12.13 95.56 12.55Q95.14 12.98 94.56 13.22Q93.99 13.45 93.32 13.45L93.32 13.45L88.12 13.45ZM93.17 9.17L91.45 9.17L91.45 11.58L93.17 11.58Q93.37 11.58 93.55 11.48Q93.72 11.38 93.85 11.21Q93.97 11.04 94.05 10.82Q94.12 10.60 94.12 10.36L94.12 10.36Q94.12 10.10 94.05 9.89Q93.97 9.67 93.84 9.51Q93.71 9.35 93.54 9.26Q93.37 9.17 93.17 9.17L93.17 9.17ZM93.08 4.97L91.45 4.97L91.45 7.29L93.08 7.29Q93.27 7.29 93.44 7.20Q93.61 7.10 93.74 6.94Q93.86 6.78 93.94 6.58Q94.01 6.38 94.01 6.16L94.01 6.16Q94.01 5.95 93.94 5.74Q93.86 5.52 93.74 5.35Q93.61 5.18 93.44 5.08Q93.27 4.97 93.08 4.97L93.08 4.97ZM102.93 13.45L102.93 11.58L103.96 11.58L103.50 10.09L100.31 10.09L99.85 11.58L100.94 11.58L100.94 13.45L97.01 13.45L97.01 11.58L97.78 11.58L100.60 3.09L103.35 3.09L106.11 11.58L106.86 11.58L106.86 13.45L102.93 13.45ZM101.89 4.97L100.85 8.34L102.94 8.34L101.89 4.97ZM114.34 4.97L114.34 3.09L118.28 3.09L118.28 4.97L117.43 4.97L117.43 13.45L115.17 13.45L110.85 6.75L110.85 11.58L111.72 11.58L111.72 13.45L107.79 13.45L107.79 11.58L108.64 11.58L108.64 4.97L107.80 4.97L107.80 3.09L110.93 3.09L115.22 9.88L115.22 4.97L114.34 4.97ZM119.40 4.97L119.40 3.09L123.83 3.09L123.83 4.97L122.74 4.97L122.74 7.98L126.05 5.09L126.05 3.09L129.59 3.09L129.59 5.11L128.82 5.11L125.36 8.07L128.67 11.42L129.51 11.42L129.51 13.45L126.08 13.45L126.08 11.42L122.74 8.09L122.74 11.58L123.83 11.58L123.83 13.45L119.40 13.45L119.40 11.58L120.47 11.58L120.47 4.97L119.40 4.97Z"></path></g><defs data-v-fde0c5aa=""><!----></defs><g data-v-fde0c5aa="" id="7003e2ed-caed-4273-bd94-d5648db99694" stroke="none" fill="#0D7CE9" transform="matrix(0.9997556080342993,0,0,0.9997556080342993,40,134.00391027145122)"><path d="M9.382 8.675h13.943v13.943L32 31.293V0H.707zM22.618 23.325H8.675V9.382L0 .707V32h31.293z"></path></g><defs data-v-fde0c5aa=""><!----></defs><g data-v-fde0c5aa="" id="bc77f1ce-f053-4bb1-9633-23279787c9b7" fill="#08374E" transform="matrix(0.37942895817580974,0,0,0.37942895817580974,84.43821316368683,156.01615903366934)"><path d="M1.46 13.02L1.46 3.78L4.72 3.78Q6.23 3.78 6.98 4.41Q7.73 5.04 7.73 6.23L7.73 6.23Q7.73 7.04 7.29 7.60Q6.85 8.16 6.03 8.33L6.03 8.33L6.03 8.34Q6.93 8.48 7.46 9.07Q7.98 9.66 7.98 10.53L7.98 10.53Q7.98 11.72 7.13 12.37Q6.29 13.02 4.72 13.02L4.72 13.02L1.46 13.02ZM2.16 8.04L4.73 8.04Q6.99 8.04 6.99 6.23L6.99 6.23Q6.99 4.42 4.73 4.42L4.73 4.42L2.16 4.42L2.16 8.04ZM2.16 12.38L4.86 12.38Q6.03 12.38 6.64 11.90Q7.24 11.42 7.24 10.53L7.24 10.53Q7.24 9.62 6.64 9.15Q6.03 8.68 4.86 8.68L4.86 8.68L2.16 8.68L2.16 12.38ZM24.32 3.78L24.32 9.65Q24.32 11.35 23.39 12.26Q22.47 13.16 20.76 13.16L20.76 13.16Q19.05 13.16 18.12 12.26Q17.19 11.35 17.19 9.65L17.19 9.65L17.19 3.78L17.89 3.78L17.89 9.51Q17.89 10.99 18.62 11.75Q19.35 12.52 20.76 12.52L20.76 12.52Q22.16 12.52 22.89 11.75Q23.62 10.99 23.62 9.51L23.62 9.51L23.62 3.78L24.32 3.78ZM34.82 3.78L34.82 13.02L34.12 13.02L34.12 3.78L34.82 3.78ZM45.43 12.38L50.97 12.38L50.97 13.02L44.73 13.02L44.73 3.78L45.43 3.78L45.43 12.38ZM62.65 3.78Q64.86 3.78 66.06 4.95Q67.26 6.12 67.26 8.33L67.26 8.33Q67.26 10.60 66.06 11.81Q64.86 13.02 62.65 13.02L62.65 13.02L59.74 13.02L59.74 3.78L62.65 3.78ZM62.71 12.38Q64.55 12.38 65.54 11.33Q66.53 10.29 66.53 8.33L66.53 8.33Q66.53 6.45 65.54 5.44Q64.55 4.42 62.71 4.42L62.71 4.42L60.44 4.42L60.44 12.38L62.71 12.38ZM77.29 3.78L77.29 13.02L76.59 13.02L76.59 3.78L77.29 3.78ZM94.30 3.78L94.30 13.02L93.44 13.02L88.54 5.77L87.85 4.54L87.84 4.54L87.88 5.70L87.88 13.02L87.21 13.02L87.21 3.78L88.09 3.78L92.97 11.02L93.67 12.26L93.65 11.10L93.65 3.78L94.30 3.78ZM107.77 8.50L111.57 8.50L111.57 13.02L111.01 13.02L110.98 11.41Q110.60 12.25 109.80 12.71Q108.99 13.16 107.80 13.16L107.80 13.16Q106.54 13.16 105.59 12.58Q104.65 12.00 104.14 10.92Q103.63 9.84 103.63 8.40L103.63 8.40Q103.63 6.96 104.15 5.88Q104.68 4.80 105.63 4.22Q106.58 3.64 107.84 3.64L107.84 3.64Q109.26 3.64 110.15 4.20Q111.05 4.76 111.50 5.91L111.50 5.91L110.85 6.24Q110.53 5.28 109.77 4.78Q109.00 4.28 107.84 4.28L107.84 4.28Q106.81 4.28 106.02 4.78Q105.24 5.28 104.80 6.21Q104.37 7.14 104.37 8.40L104.37 8.40Q104.37 10.32 105.29 11.42Q106.20 12.52 107.83 12.52L107.83 12.52Q108.84 12.52 109.54 12.12Q110.24 11.72 110.57 11.07Q110.91 10.42 110.91 9.67L110.91 9.67L110.91 9.16L107.77 9.16L107.77 8.50ZM137.89 3.78L134.61 9.42L134.61 13.02L133.91 13.02L133.91 9.42L130.63 3.78L131.46 3.78L134.26 8.69L137.06 3.78L137.89 3.78ZM149.86 3.64Q151.16 3.64 152.12 4.22Q153.08 4.80 153.59 5.87Q154.11 6.94 154.11 8.40L154.11 8.40Q154.11 9.86 153.59 10.93Q153.08 12.00 152.12 12.58Q151.16 13.16 149.86 13.16L149.86 13.16Q148.55 13.16 147.59 12.58Q146.64 12.00 146.12 10.93Q145.60 9.86 145.60 8.40L145.60 8.40Q145.60 6.94 146.12 5.87Q146.64 4.80 147.59 4.22Q148.55 3.64 149.86 3.64L149.86 3.64ZM149.86 4.28Q148.78 4.28 147.99 4.78Q147.20 5.28 146.77 6.21Q146.34 7.14 146.34 8.40L146.34 8.40Q146.34 9.66 146.77 10.59Q147.20 11.52 147.99 12.02Q148.78 12.52 149.86 12.52L149.86 12.52Q150.93 12.52 151.73 12.02Q152.53 11.52 152.96 10.59Q153.38 9.66 153.38 8.40L153.38 8.40Q153.38 7.14 152.96 6.21Q152.53 5.28 151.73 4.78Q150.93 4.28 149.86 4.28L149.86 4.28ZM170.45 3.78L170.45 9.65Q170.45 11.35 169.53 12.26Q168.60 13.16 166.89 13.16L166.89 13.16Q165.19 13.16 164.25 12.26Q163.32 11.35 163.32 9.65L163.32 9.65L163.32 3.78L164.02 3.78L164.02 9.51Q164.02 10.99 164.75 11.75Q165.48 12.52 166.89 12.52L166.89 12.52Q168.29 12.52 169.02 11.75Q169.75 10.99 169.75 9.51L169.75 9.51L169.75 3.78L170.45 3.78ZM187.19 13.02L186.37 13.02L183.72 9.02L183.68 9.02L180.95 9.02L180.95 13.02L180.25 13.02L180.25 3.78L183.68 3.78Q185.07 3.78 185.88 4.48Q186.70 5.18 186.70 6.40L186.70 6.40Q186.70 7.41 186.12 8.07Q185.53 8.74 184.51 8.93L184.51 8.93L187.19 13.02ZM180.95 4.42L180.95 8.36L183.67 8.36Q184.79 8.36 185.38 7.85Q185.98 7.35 185.98 6.40L185.98 6.40Q185.98 5.45 185.38 4.93Q184.79 4.42 183.67 4.42L183.67 4.42L180.95 4.42ZM213.89 4.42L208.29 4.42L208.29 7.99L212.73 7.99L212.73 8.65L208.29 8.65L208.29 13.02L207.59 13.02L207.59 3.78L213.89 3.78L213.89 4.42ZM229.78 3.78L229.78 9.65Q229.78 11.35 228.86 12.26Q227.93 13.16 226.23 13.16L226.23 13.16Q224.52 13.16 223.59 12.26Q222.66 11.35 222.66 9.65L222.66 9.65L222.66 3.78L223.36 3.78L223.36 9.51Q223.36 10.99 224.08 11.75Q224.81 12.52 226.23 12.52L226.23 12.52Q227.63 12.52 228.35 11.75Q229.08 10.99 229.08 9.51L229.08 9.51L229.08 3.78L229.78 3.78ZM245.88 3.78L245.88 4.42L242.51 4.42L242.51 13.02L241.81 13.02L241.81 4.42L238.43 4.42L238.43 3.78L245.88 3.78ZM261.66 3.78L261.66 9.65Q261.66 11.35 260.74 12.26Q259.81 13.16 258.10 13.16L258.10 13.16Q256.40 13.16 255.46 12.26Q254.53 11.35 254.53 9.65L254.53 9.65L254.53 3.78L255.23 3.78L255.23 9.51Q255.23 10.99 255.96 11.75Q256.69 12.52 258.10 12.52L258.10 12.52Q259.50 12.52 260.23 11.75Q260.96 10.99 260.96 9.51L260.96 9.51L260.96 3.78L261.66 3.78ZM278.40 13.02L277.58 13.02L274.93 9.02L274.89 9.02L272.16 9.02L272.16 13.02L271.46 13.02L271.46 3.78L274.89 3.78Q276.28 3.78 277.09 4.48Q277.91 5.18 277.91 6.40L277.91 6.40Q277.91 7.41 277.33 8.07Q276.74 8.74 275.72 8.93L275.72 8.93L278.40 13.02ZM272.16 4.42L272.16 8.36L274.88 8.36Q276.00 8.36 276.59 7.85Q277.19 7.35 277.19 6.40L277.19 6.40Q277.19 5.45 276.59 4.93Q276.00 4.42 274.88 4.42L274.88 4.42L272.16 4.42ZM288.12 12.38L293.96 12.38L293.96 13.02L287.42 13.02L287.42 3.78L293.73 3.78L293.73 4.42L288.12 4.42L288.12 7.99L292.56 7.99L292.56 8.65L288.12 8.65L288.12 12.38ZM320.29 3.78L320.29 4.42L316.92 4.42L316.92 13.02L316.22 13.02L316.22 4.42L312.84 4.42L312.84 3.78L320.29 3.78ZM332.23 3.64Q333.54 3.64 334.49 4.22Q335.45 4.80 335.97 5.87Q336.49 6.94 336.49 8.40L336.49 8.40Q336.49 9.86 335.97 10.93Q335.45 12.00 334.49 12.58Q333.54 13.16 332.23 13.16L332.23 13.16Q330.93 13.16 329.97 12.58Q329.01 12.00 328.50 10.93Q327.98 9.86 327.98 8.40L327.98 8.40Q327.98 6.94 328.50 5.87Q329.01 4.80 329.97 4.22Q330.93 3.64 332.23 3.64L332.23 3.64ZM332.23 4.28Q331.16 4.28 330.36 4.78Q329.57 5.28 329.15 6.21Q328.72 7.14 328.72 8.40L328.72 8.40Q328.72 9.66 329.15 10.59Q329.57 11.52 330.36 12.02Q331.16 12.52 332.23 12.52L332.23 12.52Q333.31 12.52 334.11 12.02Q334.91 11.52 335.33 10.59Q335.76 9.66 335.76 8.40L335.76 8.40Q335.76 7.14 335.33 6.21Q334.91 5.28 334.11 4.78Q333.31 4.28 332.23 4.28L332.23 4.28ZM349.37 8.50L353.16 8.50L353.16 13.02L352.60 13.02L352.58 11.41Q352.20 12.25 351.39 12.71Q350.59 13.16 349.40 13.16L349.40 13.16Q348.14 13.16 347.19 12.58Q346.25 12.00 345.74 10.92Q345.23 9.84 345.23 8.40L345.23 8.40Q345.23 6.96 345.75 5.88Q346.28 4.80 347.23 4.22Q348.18 3.64 349.44 3.64L349.44 3.64Q350.85 3.64 351.75 4.20Q352.65 4.76 353.09 5.91L353.09 5.91L352.45 6.24Q352.13 5.28 351.36 4.78Q350.60 4.28 349.44 4.28L349.44 4.28Q348.40 4.28 347.62 4.78Q346.84 5.28 346.40 6.21Q345.97 7.14 345.97 8.40L345.97 8.40Q345.97 10.32 346.88 11.42Q347.80 12.52 349.43 12.52L349.43 12.52Q350.43 12.52 351.13 12.12Q351.83 11.72 352.17 11.07Q352.51 10.42 352.51 9.67L352.51 9.67L352.51 9.16L349.37 9.16L349.37 8.50ZM363.34 12.38L369.18 12.38L369.18 13.02L362.64 13.02L362.64 3.78L368.96 3.78L368.96 4.42L363.34 4.42L363.34 7.99L367.78 7.99L367.78 8.65L363.34 8.65L363.34 12.38ZM384.51 3.78L384.51 4.42L381.14 4.42L381.14 13.02L380.44 13.02L380.44 4.42L377.06 4.42L377.06 3.78L384.51 3.78ZM399.69 3.78L400.39 3.78L400.39 13.02L399.69 13.02L399.69 8.65L393.97 8.65L393.97 13.02L393.27 13.02L393.27 3.78L393.97 3.78L393.97 7.99L399.69 7.99L399.69 3.78ZM411.00 12.38L416.84 12.38L416.84 13.02L410.30 13.02L410.30 3.78L416.61 3.78L416.61 4.42L411.00 4.42L411.00 7.99L415.44 7.99L415.44 8.65L411.00 8.65L411.00 12.38ZM432.81 13.02L431.98 13.02L429.34 9.02L429.30 9.02L426.57 9.02L426.57 13.02L425.87 13.02L425.87 3.78L429.30 3.78Q430.68 3.78 431.50 4.48Q432.32 5.18 432.32 6.40L432.32 6.40Q432.32 7.41 431.73 8.07Q431.14 8.74 430.12 8.93L430.12 8.93L432.81 13.02ZM426.57 4.42L426.57 8.36L429.28 8.36Q430.40 8.36 431.00 7.85Q431.59 7.35 431.59 6.40L431.59 6.40Q431.59 5.45 431.00 4.93Q430.40 4.42 429.28 4.42L429.28 4.42L426.57 4.42ZM441.91 11.87Q442.19 11.87 442.36 12.05Q442.54 12.22 442.54 12.50L442.54 12.50Q442.54 12.78 442.36 12.96Q442.19 13.13 441.91 13.13L441.91 13.13Q441.63 13.13 441.45 12.96Q441.28 12.78 441.28 12.50L441.28 12.50Q441.28 12.22 441.45 12.05Q441.63 11.87 441.91 11.87L441.91 11.87ZM451.99 11.87Q452.27 11.87 452.44 12.05Q452.62 12.22 452.62 12.50L452.62 12.50Q452.62 12.78 452.44 12.96Q452.27 13.13 451.99 13.13L451.99 13.13Q451.71 13.13 451.53 12.96Q451.36 12.78 451.36 12.50L451.36 12.50Q451.36 12.22 451.53 12.05Q451.71 11.87 451.99 11.87L451.99 11.87ZM462.07 11.87Q462.35 11.87 462.52 12.05Q462.70 12.22 462.70 12.50L462.70 12.50Q462.70 12.78 462.52 12.96Q462.35 13.13 462.07 13.13L462.07 13.13Q461.79 13.13 461.61 12.96Q461.44 12.78 461.44 12.50L461.44 12.50Q461.44 12.22 461.61 12.05Q461.79 11.87 462.07 11.87L462.07 11.87Z"></path></g></svg>