<svg data-v-423bf9ae="" xmlns="http://www.w3.org/2000/svg" viewBox="0 0 709.7520000231193 60" class="font"><!----><!----><!----><g data-v-423bf9ae="" id="028eceb5-6f29-4a19-bdee-dcce0eb4d4db" fill="white" transform="matrix(5.509641699578938,0,0,5.509641699578938,-4.242413597209122,-15.316804005615914)"><path d="M0.77 5.15L0.77 3.09L9.02 3.09L9.02 6.62L6.79 6.62L6.79 5.15L4.13 5.15L4.13 7.20L6.19 7.20L6.19 9.18L4.13 9.18L4.13 11.58L6.79 11.58L6.79 9.74L9.02 9.74L9.02 13.45L0.77 13.45L0.77 11.58L1.86 11.58L1.86 5.15L0.77 5.15ZM15.54 13.45L15.54 11.58L16.57 11.58L16.11 10.09L12.92 10.09L12.46 11.58L13.55 11.58L13.55 13.45L9.62 13.45L9.62 11.58L10.39 11.58L13.21 3.09L15.96 3.09L18.72 11.58L19.47 11.58L19.47 13.45L15.54 13.45ZM14.50 4.97L13.46 8.34L15.55 8.34L14.50 4.97ZM25.38 6.61L25.38 6.01Q25.35 5.77 25.21 5.56Q25.08 5.35 24.87 5.19Q24.66 5.04 24.40 4.95Q24.14 4.86 23.85 4.86L23.85 4.86Q23.59 4.86 23.37 4.92Q23.14 4.97 22.97 5.08Q22.80 5.20 22.71 5.37Q22.61 5.55 22.61 5.80L22.61 5.80Q22.61 6.10 22.74 6.29Q22.87 6.47 23.08 6.58Q23.29 6.70 23.54 6.77Q23.80 6.84 24.04 6.92L24.04 6.92L25.92 7.55Q26.30 7.68 26.65 7.92Q26.99 8.16 27.24 8.50Q27.49 8.85 27.63 9.29Q27.77 9.73 27.77 10.29L27.77 10.29Q27.77 11.04 27.50 11.66Q27.22 12.28 26.72 12.73Q26.22 13.17 25.53 13.42Q24.83 13.67 23.98 13.67L23.98 13.67Q23.39 13.67 22.86 13.53Q22.33 13.40 21.89 13.15Q21.45 12.89 21.12 12.54Q20.79 12.19 20.61 11.74L20.61 11.74L19.91 11.74L19.91 9.69L22.38 9.69L22.38 10.11Q22.38 10.42 22.48 10.68Q22.58 10.94 22.78 11.13Q22.98 11.32 23.28 11.43Q23.58 11.53 23.98 11.53L23.98 11.53Q24.60 11.53 24.92 11.25Q25.24 10.96 25.24 10.46L25.24 10.46Q25.24 10.20 25.13 10.02Q25.01 9.85 24.83 9.73Q24.66 9.61 24.44 9.53Q24.22 9.45 24.01 9.38L24.01 9.38L22.44 8.87Q22.00 8.74 21.58 8.49Q21.17 8.24 20.85 7.88Q20.54 7.51 20.35 7.01Q20.16 6.51 20.16 5.88L20.16 5.88Q20.16 5.14 20.43 4.56Q20.71 3.99 21.20 3.59Q21.69 3.19 22.37 2.99Q23.04 2.78 23.85 2.78L23.85 2.78Q24.49 2.78 25.03 2.93Q25.57 3.08 25.99 3.32Q26.42 3.57 26.72 3.89Q27.02 4.20 27.17 4.55L27.17 4.55L27.86 4.55L27.86 6.61L25.38 6.61ZM30.69 13.45L30.69 11.58L31.76 11.58L31.76 4.90L30.50 4.90L30.50 6.24L28.27 6.24L28.27 3.09L37.70 3.09L37.70 6.24L35.46 6.24L35.46 4.90L34.03 4.90L34.03 11.58L35.12 11.58L35.12 13.45L30.69 13.45ZM52.25 4.97L52.25 3.09L56.69 3.09L56.69 4.97L55.75 4.97L53.37 13.45L50.42 13.45L48.85 6.99L47.25 13.45L44.32 13.45L41.90 4.97L40.85 4.97L40.85 3.09L45.29 3.09L45.29 4.97L44.21 4.97L45.74 10.55L47.58 3.11L50.12 3.11L51.93 10.55L53.46 4.97L52.25 4.97ZM57.60 5.15L57.60 3.09L65.84 3.09L65.84 6.62L63.62 6.62L63.62 5.15L60.96 5.15L60.96 7.20L63.01 7.20L63.01 9.18L60.96 9.18L60.96 11.58L63.62 11.58L63.62 9.74L65.84 9.74L65.84 13.45L57.60 13.45L57.60 11.58L58.69 11.58L58.69 5.15L57.60 5.15ZM72.02 6.61L72.02 6.01Q71.98 5.77 71.85 5.56Q71.72 5.35 71.51 5.19Q71.30 5.04 71.04 4.95Q70.77 4.86 70.49 4.86L70.49 4.86Q70.23 4.86 70 4.92Q69.77 4.97 69.61 5.08Q69.44 5.20 69.34 5.37Q69.24 5.55 69.24 5.80L69.24 5.80Q69.24 6.10 69.37 6.29Q69.51 6.47 69.72 6.58Q69.92 6.70 70.18 6.77Q70.43 6.84 70.67 6.92L70.67 6.92L72.55 7.55Q72.94 7.68 73.28 7.92Q73.62 8.16 73.87 8.50Q74.12 8.85 74.27 9.29Q74.41 9.73 74.41 10.29L74.41 10.29Q74.41 11.04 74.13 11.66Q73.86 12.28 73.36 12.73Q72.86 13.17 72.16 13.42Q71.46 13.67 70.62 13.67L70.62 13.67Q70.02 13.67 69.49 13.53Q68.96 13.40 68.52 13.15Q68.09 12.89 67.76 12.54Q67.43 12.19 67.25 11.74L67.25 11.74L66.54 11.74L66.54 9.69L69.02 9.69L69.02 10.11Q69.02 10.42 69.11 10.68Q69.21 10.94 69.41 11.13Q69.61 11.32 69.91 11.43Q70.21 11.53 70.62 11.53L70.62 11.53Q71.23 11.53 71.55 11.25Q71.87 10.96 71.87 10.46L71.87 10.46Q71.87 10.20 71.76 10.02Q71.65 9.85 71.47 9.73Q71.29 9.61 71.07 9.53Q70.85 9.45 70.64 9.38L70.64 9.38L69.08 8.87Q68.63 8.74 68.22 8.49Q67.81 8.24 67.49 7.88Q67.17 7.51 66.98 7.01Q66.79 6.51 66.79 5.88L66.79 5.88Q66.79 5.14 67.07 4.56Q67.34 3.99 67.83 3.59Q68.33 3.19 69.00 2.99Q69.68 2.78 70.49 2.78L70.49 2.78Q71.12 2.78 71.66 2.93Q72.20 3.08 72.63 3.32Q73.06 3.57 73.35 3.89Q73.65 4.20 73.81 4.55L73.81 4.55L74.49 4.55L74.49 6.61L72.02 6.61ZM77.32 13.45L77.32 11.58L78.39 11.58L78.39 4.90L77.14 4.90L77.14 6.24L74.91 6.24L74.91 3.09L84.33 3.09L84.33 6.24L82.09 6.24L82.09 4.90L80.66 4.90L80.66 11.58L81.76 11.58L81.76 13.45L77.32 13.45ZM88.12 13.45L88.12 11.58L89.18 11.58L89.18 4.97L88.12 4.97L88.12 3.08L93.17 3.09Q93.88 3.09 94.46 3.34Q95.05 3.59 95.47 4.02Q95.89 4.44 96.13 5.01Q96.37 5.58 96.37 6.23L96.37 6.23Q96.37 6.98 96.10 7.47Q95.84 7.96 95.35 8.26L95.35 8.26Q95.87 8.59 96.16 9.07Q96.46 9.56 96.46 10.25L96.46 10.25Q96.46 10.95 96.22 11.54Q95.98 12.13 95.56 12.55Q95.14 12.98 94.56 13.22Q93.99 13.45 93.32 13.45L93.32 13.45L88.12 13.45ZM93.17 9.17L91.45 9.17L91.45 11.58L93.17 11.58Q93.37 11.58 93.55 11.48Q93.72 11.38 93.85 11.21Q93.97 11.04 94.05 10.82Q94.12 10.60 94.12 10.36L94.12 10.36Q94.12 10.10 94.05 9.89Q93.97 9.67 93.84 9.51Q93.71 9.35 93.54 9.26Q93.37 9.17 93.17 9.17L93.17 9.17ZM93.08 4.97L91.45 4.97L91.45 7.29L93.08 7.29Q93.27 7.29 93.44 7.20Q93.61 7.10 93.74 6.94Q93.86 6.78 93.94 6.58Q94.01 6.38 94.01 6.16L94.01 6.16Q94.01 5.95 93.94 5.74Q93.86 5.52 93.74 5.35Q93.61 5.18 93.44 5.08Q93.27 4.97 93.08 4.97L93.08 4.97ZM102.93 13.45L102.93 11.58L103.96 11.58L103.50 10.09L100.31 10.09L99.85 11.58L100.94 11.58L100.94 13.45L97.01 13.45L97.01 11.58L97.78 11.58L100.60 3.09L103.35 3.09L106.11 11.58L106.86 11.58L106.86 13.45L102.93 13.45ZM101.89 4.97L100.85 8.34L102.94 8.34L101.89 4.97ZM114.34 4.97L114.34 3.09L118.28 3.09L118.28 4.97L117.43 4.97L117.43 13.45L115.17 13.45L110.85 6.75L110.85 11.58L111.72 11.58L111.72 13.45L107.79 13.45L107.79 11.58L108.64 11.58L108.64 4.97L107.80 4.97L107.80 3.09L110.93 3.09L115.22 9.88L115.22 4.97L114.34 4.97ZM119.40 4.97L119.40 3.09L123.83 3.09L123.83 4.97L122.74 4.97L122.74 7.98L126.05 5.09L126.05 3.09L129.59 3.09L129.59 5.11L128.82 5.11L125.36 8.07L128.67 11.42L129.51 11.42L129.51 13.45L126.08 13.45L126.08 11.42L122.74 8.09L122.74 11.58L123.83 11.58L123.83 13.45L119.40 13.45L119.40 11.58L120.47 11.58L120.47 4.97L119.40 4.97Z"></path></g><!----><!----></svg>