<svg xmlns="http://www.w3.org/2000/svg" width="8" height="8" viewBox="0 0 8 8"><title>icon</title><g fill="#212121"><path fill="#212121" fill-opacity="0.3" data-stroke="none" d="M3.96 0.77a3.19 3.19 0 1 0 0 6.38 3.19 3.19 0 1 0 0-6.38z" stroke="none"></path><path d="M0.77 3.96a3.19 3.19 0 0 1 6.14-1.21" stroke="#212121" stroke-width="0.5" stroke-linecap="round" stroke-linejoin="round" fill="none"></path><path d="M7.09 1.45l-0.18 1.3-1.29-0.18" stroke="#212121" stroke-width="0.5" stroke-linecap="round" stroke-linejoin="round" fill="none"></path><path d="M7.15 3.96a3.19 3.19 0 0 1-6.14 1.21" stroke="#212121" stroke-width="0.5" stroke-linecap="round" stroke-linejoin="round" fill="none"></path><path d="M0.83 6.47l0.18-1.3 1.29 0.18" stroke="#212121" stroke-width="0.5" stroke-linecap="round" stroke-linejoin="round" fill="none"></path><path d="M4.76 3.03c-0.17-0.41-0.52-0.5-0.78-0.5-0.24 0-0.88 0.13-0.83 0.74 0.04 0.43 0.45 0.59 0.81 0.66 0.36 0.06 0.87 0.2 0.88 0.72 0.01 0.44-0.39 0.74-0.86 0.74-0.46 0-0.77-0.18-0.9-0.58" stroke="#212121" stroke-width="0.5" stroke-linecap="round" stroke-linejoin="round" fill="none"></path><path d="M3.96 2.2v0.28" stroke="#212121" stroke-width="0.5" stroke-linecap="round" stroke-linejoin="round" fill="none"></path><path d="M3.96 5.39v0.28" stroke="#212121" stroke-width="0.5" stroke-linecap="round" stroke-linejoin="round" fill="none"></path></g></svg>
